<?xml version="1.0" encoding="utf-8"?>
<!DOCTYPE svg PUBLIC "-//W3C//DTD SVG 1.1//EN" "http://www.w3.org/Graphics/SVG/1.1/DTD/svg11.dtd">
<svg version="1.1" id="Level_1" xmlns="http://www.w3.org/2000/svg" xmlns:xlink="http://www.w3.org/1999/xlink" x="0px" y="0px" width="100%" height="100%" viewBox="0 0 500 100" enable-background="new 0 0 500 100" xml:space="preserve">
	<defs>
		<rect id="rect" width="100%" height="100%" fill="none" stroke="#000000" />
		<clipPath id="clip">
			<use xlink:href="#rect"/>
		</clipPath>
	</defs>
	<rect x="0" y="0" height="100" width="500" fill="#33658A" />
	<g clip-path="url(#clip)">
		<g transform="rotate(0 250 50)">
			<g transform="translate(-110 -4)">
				<path d="
					M000 50
					Q 025 42, 050 50 T 100 50
					Q 125 42, 150 50 T 200 50
					Q 225 42, 250 50 T 300 50
					Q 325 42, 350 50 T 400 50
					Q 425 42, 450 50 T 500 50
					Q 525 42, 550 50 T 600 50
					Q 625 42, 650 50 T 700 50
					V 1000 H 000 V 50 " fill="#2E3532" stroke="#2E3532" opacity=".5" />
				<animateTransform attributeName="transform"
					attributeType="XML"
					type="translate"
					from="-110 -4"
					to="-10 -4"
					dur="4s"
					repeatCount="indefinite"/>
			</g>
			<g transform="translate(-100 0)">
				<path d="
					M000 50
					Q 025 40, 050 50 T 100 50
					Q 125 40, 150 50 T 200 50
					Q 225 40, 250 50 T 300 50
					Q 325 40, 350 50 T 400 50
					Q 425 40, 450 50 T 500 50
					Q 525 40, 550 50 T 600 50
					Q 625 40, 650 50 T 700 50
					V 1000 H 000 V 50 " fill="#2E3532" stroke="#2E3532" opacity=".75" />
				<animateTransform attributeName="transform"
					attributeType="XML"
					type="translate"
					from="-100 0"
					to="0 0"
					dur="6s"
					repeatCount="indefinite"/>
			</g>
			<g transform="translate(-130 4)">
				<path d="
					M000 50
					Q 025 37, 050 50 T 100 50
					Q 125 37, 150 50 T 200 50
					Q 225 37, 250 50 T 300 50
					Q 325 37, 350 50 T 400 50
					Q 425 37, 450 50 T 500 50
					Q 525 37, 550 50 T 600 50
					Q 625 37, 650 50 T 700 50
					V 1000 H 000 V 50 " fill="#2E3532" stroke="#2E3532" opacity="1" />
				<animateTransform attributeName="transform"
					attributeType="XML"
					type="translate"
					from="-130 4"
					to="-30 4"
					dur="10s"
					repeatCount="indefinite"/>
			</g>
			<animateTransform attributeName="transform"
				attributeType="XML"
				type="rotate"
				from="-45 250 50"
				to="405 250 50"
				dur="1000s"
				repeatCount="indefinite"/>
		</g>
	</g>
</svg>