<svg xmlns="http://www.w3.org/2000/svg" xmlns:xlink="http://www.w3.org/1999/xlink" viewBox="0 0 500 100">
  <defs>
    <rect id="a" width="100%" height="100%" fill="none" stroke="#000"/>
    <clipPath id="b">
      <use xlink:href="#a"/>
    </clipPath>
  </defs>
  <path fill="#33658A" d="M0 0h500v100H0z"/>
  <g clip-path="url(#b)">
    <g>
      <g transform="translate(-110 -4)">
        <path fill="#2E3532" stroke="#2E3532" d="M0 50q25-8 50 0t50 0 50 0 50 0 50 0 50 0 50 0 50 0 50 0 50 0 50 0 50 0 50 0 50 0v950H0V50" opacity=".5"/>
        <animateTransform attributeName="transform" attributeType="XML" type="translate" from="-110 -4" to="-10 -4" dur="4s" repeatCount="indefinite"/>
      </g>
      <g transform="translate(-100)">
        <path fill="#2E3532" stroke="#2E3532" d="M0 50q25-10 50 0t50 0 50 0 50 0 50 0 50 0 50 0 50 0 50 0 50 0 50 0 50 0 50 0 50 0v950H0V50" opacity=".75"/>
        <animateTransform attributeName="transform" attributeType="XML" type="translate" from="-100 0" to="0 0" dur="6s" repeatCount="indefinite"/>
      </g>
      <g transform="translate(-130 4)">
        <path fill="#2E3532" stroke="#2E3532" d="M0 50q25-13 50 0t50 0 50 0 50 0 50 0 50 0 50 0 50 0 50 0 50 0 50 0 50 0 50 0 50 0v950H0V50"/>
        <animateTransform attributeName="transform" attributeType="XML" type="translate" from="-130 4" to="-30 4" dur="10s" repeatCount="indefinite"/>
      </g>
      <animateTransform attributeName="transform" attributeType="XML" type="rotate" from="-45 250 50" to="405 250 50" dur="1000s" repeatCount="indefinite"/>
    </g>
  </g>
</svg>
