<?xml version="1.0" encoding="utf-8"?>
<!DOCTYPE svg PUBLIC "-//W3C//DTD SVG 1.1//EN" "http://www.w3.org/Graphics/SVG/1.1/DTD/svg11.dtd">
<svg version="1.1" id="Level_1" xmlns="http://www.w3.org/2000/svg" xmlns:xlink="http://www.w3.org/1999/xlink" x="0px" y="0px" width="100%" height="100%" viewBox="0 0 100 100" enable-background="new 0 0 100 100" xml:space="preserve">
	<rect x="0" y="0" fill="#E2E2E2" width="100" height="100"/>
	<path d="M0 10 H 100 V 10" stroke="#CCCCCC" fill="transparent" stroke-dasharray="1, 1" stroke-width=".1"/>
	<path d="M0 20 H 100 V 20" stroke="#CCCCCC" fill="transparent" stroke-dasharray="1, 1" stroke-width=".1"/>
	<path d="M0 30 H 100 V 30" stroke="#CCCCCC" fill="transparent" stroke-dasharray="1, 1" stroke-width=".1"/>
	<path d="M0 40 H 100 V 40" stroke="#CCCCCC" fill="transparent" stroke-dasharray="1, 1" stroke-width=".1"/>
	<path d="M0 50 H 100 V 50" stroke="#CCCCCC" fill="transparent" stroke-dasharray="1, 1" stroke-width=".1"/>
	<path d="M0 60 H 100 V 60" stroke="#CCCCCC" fill="transparent" stroke-dasharray="1, 1" stroke-width=".1"/>
	<path d="M0 70 H 100 V 70" stroke="#CCCCCC" fill="transparent" stroke-dasharray="1, 1" stroke-width=".1"/>
	<path d="M0 80 H 100 V 80" stroke="#CCCCCC" fill="transparent" stroke-dasharray="1, 1" stroke-width=".1"/>
	<path d="M0 90 H 100 V 90" stroke="#CCCCCC" fill="transparent" stroke-dasharray="1, 1" stroke-width=".1"/>
	<path d="M10 0 H 10 V 100" stroke="#CCCCCC" fill="transparent" stroke-dasharray="1, 1" stroke-width=".1"/>
	<path d="M20 0 H 20 V 100" stroke="#CCCCCC" fill="transparent" stroke-dasharray="1, 1" stroke-width=".1"/>
	<path d="M30 0 H 30 V 100" stroke="#CCCCCC" fill="transparent" stroke-dasharray="1, 1" stroke-width=".1"/>
	<path d="M40 0 H 40 V 100" stroke="#CCCCCC" fill="transparent" stroke-dasharray="1, 1" stroke-width=".1"/>
	<path d="M50 0 H 50 V 100" stroke="#CCCCCC" fill="transparent" stroke-dasharray="1, 1" stroke-width=".1"/>
	<path d="M60 0 H 60 V 100" stroke="#CCCCCC" fill="transparent" stroke-dasharray="1, 1" stroke-width=".1"/>
	<path d="M70 0 H 70 V 100" stroke="#CCCCCC" fill="transparent" stroke-dasharray="1, 1" stroke-width=".1"/>
	<path d="M80 0 H 80 V 100" stroke="#CCCCCC" fill="transparent" stroke-dasharray="1, 1" stroke-width=".1"/>
	<path d="M90 0 H 90 V 100" stroke="#CCCCCC" fill="transparent" stroke-dasharray="1, 1" stroke-width=".1"/>

	<path d="M90 0 C 70 10, 60 30, 50 50 S 30 90, 10 100 H 100 V 100 H 100 V 0 H 90 V 0" fill="#2E3532"/>
	<path d="M90 0 C 70 10, 60 30, 50 50 S 30 90, 10 100 H 0 V 100 H 0 V 0 H 90 V 0" fill="#33658A"/>
</svg>